<svg width="167.08594" height="242.66699" xmlns="http://www.w3.org/2000/svg">
 <metadata id="metadata806">image/svg+xml</metadata>

 <g>
  <title>Layer 1</title>
  <g id="Layer_x0020_1" transform="matrix(1,0,0,1.0030237,0,-0.3668761)" stroke-miterlimit="4" stroke-width="0.1011" stroke="#fb0f0c" fill-rule="nonzero" fill="#fb0f0c">
   <path d="m166.83594,235.54785c0,3.77735 -3.08594,6.86914 -6.87012,6.86914l-152.85498,0c-3.7749,0 -6.86084,-3.09179 -6.86084,-6.86914l0,-228.42773c0,-3.77735 3.08594,-6.87012 6.86084,-6.87012l152.85498,0c3.78418,0 6.87012,3.09277 6.87012,6.87012l0,228.42773l0,0z" id="path5" stroke-width="0.49925" stroke="#000000" fill="#ffffff"/>
   <path d="m14.63428,24.24561l4.05029,0l0,4.0498l-4.05029,0l0,-4.0498z" id="path7" stroke-miterlimit="10" stroke-width="0.1011" fill-rule="evenodd"/>
   <path d="m6.37695,7.75293l154.33203,0l0,227.22266l-154.33203,0l0,-227.22266z" id="path9" fill="none"/>
   <path d="m14.63428,32.3457l4.05029,0l0,4.04981l-4.05029,0l0,-4.04981z" id="path11" stroke-miterlimit="10" stroke-width="0.1011" fill-rule="evenodd"/>
   <path d="m14.63428,40.44531l4.05029,0l0,4.05029l-4.05029,0l0,-4.05029z" id="path13" stroke-miterlimit="10" stroke-width="0.1011" fill-rule="evenodd"/>
   <path d="m6.37695,7.75293l154.33203,0l0,227.22266l-154.33203,0l0,-227.22266z" id="path15" fill="none"/>
   <path d="m14.63428,48.54541l4.05029,0l0,4.05029l-4.05029,0l0,-4.05029l0,0z" id="path17" stroke-miterlimit="10" stroke-width="0.1011" fill-rule="evenodd"/>
   <path d="m14.63428,56.64551l4.05029,0l0,4.0498l-4.05029,0l0,-4.0498z" id="path19" stroke-miterlimit="10" stroke-width="0.1011" fill-rule="evenodd"/>
   <path d="m6.37695,7.75293l154.33203,0l0,227.22266l-154.33203,0l0,-227.22266z" id="path21" fill="none"/>
   <path d="m14.63428,64.7456l4.05029,0l0,4.04981l-4.05029,0l0,-4.04981z" id="path23" stroke-miterlimit="10" stroke-width="0.1011" fill-rule="evenodd"/>
   <path d="m10.58447,20.19531l4.04981,0l0,4.0503l-4.04981,0l0,-4.0503z" id="path25" stroke-miterlimit="10" stroke-width="0.1011" fill-rule="evenodd"/>
   <path d="m6.37695,7.75293l154.33203,0l0,227.22266l-154.33203,0l0,-227.22266z" id="path27" fill="none"/>
   <path d="m10.58447,28.29541l4.04981,0l0,4.05029l-4.04981,0l0,-4.05029l0,0z" id="path29" stroke-miterlimit="10" stroke-width="0.1011" fill-rule="evenodd"/>
   <path d="m6.53418,32.3457l4.05029,0l0,4.04981l-4.05029,0l0,-4.04981l0,0z" id="path31" stroke-miterlimit="10" stroke-width="0.1011" fill-rule="evenodd"/>
   <path d="m6.37695,7.75293l154.33203,0l0,227.22266l-154.33203,0l0,-227.22266z" id="path33" fill="none"/>
   <path d="m6.53418,24.24561l4.05029,0l0,4.0498l-4.05029,0l0,-4.0498l0,0z" id="path35" stroke-miterlimit="10" stroke-width="0.1011" fill-rule="evenodd"/>
   <path d="m10.58447,12.0957l4.04981,0l0,4.04981l-4.04981,0l0,-4.04981l0,0z" id="path37" stroke-miterlimit="10" stroke-width="0.1011" fill-rule="evenodd"/>
   <path d="m6.37695,7.75293l154.33203,0l0,227.22266l-154.33203,0l0,-227.22266z" id="path39" fill="none"/>
   <path d="m6.53418,16.14551l4.05029,0l0,4.0498l-4.05029,0l0,-4.0498l0,0z" id="path41" stroke-miterlimit="10" stroke-width="0.1011" fill-rule="evenodd"/>
   <path d="m6.53418,8.04541l4.05029,0l0,4.05029l-4.05029,0l0,-4.05029l0,0z" id="path43" stroke-miterlimit="10" stroke-width="0.1011" fill-rule="evenodd"/>
   <path d="m6.37695,7.75293l154.33203,0l0,227.22266l-154.33203,0l0,-227.22266z" id="path45" fill="none"/>
   <path d="m18.68457,12.0957l4.04981,0l0,4.04981l-4.04981,0l0,-4.04981l0,0z" id="path47" stroke-miterlimit="10" stroke-width="0.1011" fill-rule="evenodd"/>
   <path d="m14.63428,16.14551l4.05029,0l0,4.0498l-4.05029,0l0,-4.0498z" id="path49" stroke-miterlimit="10" stroke-width="0.1011" fill-rule="evenodd"/>
   <path d="m6.37695,7.75293l154.33203,0l0,227.22266l-154.33203,0l0,-227.22266z" id="path51" fill="none"/>
   <path d="m14.63428,8.04541l4.05029,0l0,4.05029l-4.05029,0l0,-4.05029z" id="path53" stroke-miterlimit="10" stroke-width="0.1011" fill-rule="evenodd"/>
   <path d="m10.58447,36.39551l4.04981,0l0,4.0498l-4.04981,0l0,-4.0498z" id="path55" stroke-miterlimit="10" stroke-width="0.1011" fill-rule="evenodd"/>
   <path d="m6.37695,7.75293l154.33203,0l0,227.22266l-154.33203,0l0,-227.22266z" id="path57" fill="none"/>
   <path d="m10.58447,44.49561l4.04981,0l0,4.0498l-4.04981,0l0,-4.0498z" id="path59" stroke-miterlimit="10" stroke-width="0.1011" fill-rule="evenodd"/>
   <path d="m6.53418,48.54541l4.05029,0l0,4.05029l-4.05029,0l0,-4.05029l0,0z" id="path61" stroke-miterlimit="10" stroke-width="0.1011" fill-rule="evenodd"/>
   <path d="m6.37695,7.75293l154.33203,0l0,227.22266l-154.33203,0l0,-227.22266z" id="path63" fill="none"/>
   <path d="m6.53418,40.44531l4.05029,0l0,4.05029l-4.05029,0l0,-4.05029l0,0z" id="path65" stroke-miterlimit="10" stroke-width="0.1011" fill-rule="evenodd"/>
   <path d="m10.58447,52.5957l4.04981,0l0,4.04981l-4.04981,0l0,-4.04981z" id="path67" stroke-miterlimit="10" stroke-width="0.1011" fill-rule="evenodd"/>
   <path d="m6.37695,7.75293l154.33203,0l0,227.22266l-154.33203,0l0,-227.22266z" id="path69" fill="none"/>
   <path d="m10.58447,60.69531l4.04981,0l0,4.05029l-4.04981,0l0,-4.05029z" id="path71" stroke-miterlimit="10" stroke-width="0.1011" fill-rule="evenodd"/>
   <path d="m6.53418,64.7456l4.05029,0l0,4.04981l-4.05029,0l0,-4.04981l0,0z" id="path73" stroke-miterlimit="10" stroke-width="0.1011" fill-rule="evenodd"/>
   <path d="m6.37695,7.75293l154.33203,0l0,227.22266l-154.33203,0l0,-227.22266z" id="path75" fill="none"/>
   <path d="m6.53418,56.64551l4.05029,0l0,4.0498l-4.05029,0l0,-4.0498l0,0z" id="path77" stroke-miterlimit="10" stroke-width="0.1011" fill-rule="evenodd"/>
   <path d="m26.78418,12.0957l4.05029,0l0,4.04981l-4.05029,0l0,-4.04981l0,0z" id="path79" stroke-miterlimit="10" stroke-width="0.1011" fill-rule="evenodd"/>
   <path d="m6.37695,7.75293l154.33203,0l0,227.22266l-154.33203,0l0,-227.22266z" id="path81" fill="none"/>
   <path d="m22.73438,16.14551l4.0498,0l0,4.0498l-4.0498,0l0,-4.0498z" id="path83" stroke-miterlimit="10" stroke-width="0.1011" fill-rule="evenodd"/>
   <path d="m22.73438,8.04541l4.0498,0l0,4.05029l-4.0498,0l0,-4.05029z" id="path85" stroke-miterlimit="10" stroke-width="0.1011" fill-rule="evenodd"/>
   <path d="m6.37695,7.75293l154.33203,0l0,227.22266l-154.33203,0l0,-227.22266z" id="path87" fill="none"/>
   <path d="m34.88428,12.0957l4.05029,0l0,4.04981l-4.05029,0l0,-4.04981l0,0z" id="path89" stroke-miterlimit="10" stroke-width="0.1011" fill-rule="evenodd"/>
   <path d="m30.83447,16.14551l4.04981,0l0,4.0498l-4.04981,0l0,-4.0498l0,0z" id="path91" stroke-miterlimit="10" stroke-width="0.1011" fill-rule="evenodd"/>
   <path d="m6.37695,7.75293l154.33203,0l0,227.22266l-154.33203,0l0,-227.22266z" id="path93" fill="none"/>
   <path d="m30.83447,8.04541l4.04981,0l0,4.05029l-4.04981,0l0,-4.05029l0,0z" id="path95" stroke-miterlimit="10" stroke-width="0.1011" fill-rule="evenodd"/>
   <path d="m42.98438,12.0957l4.0498,0l0,4.04981l-4.0498,0l0,-4.04981l0,0z" id="path97" stroke-miterlimit="10" stroke-width="0.1011" fill-rule="evenodd"/>
   <path d="m6.37695,7.75293l154.33203,0l0,227.22266l-154.33203,0l0,-227.22266z" id="path99" fill="none"/>
   <path d="m38.93457,16.14551l4.04981,0l0,4.0498l-4.04981,0l0,-4.0498z" id="path101" stroke-miterlimit="10" stroke-width="0.1011" fill-rule="evenodd"/>
   <path d="m38.93457,8.04541l4.04981,0l0,4.05029l-4.04981,0l0,-4.05029z" id="path103" stroke-miterlimit="10" stroke-width="0.1011" fill-rule="evenodd"/>
   <path d="m6.37695,7.75293l154.33203,0l0,227.22266l-154.33203,0l0,-227.22266z" id="path105" fill="none"/>
   <path d="m51.08447,12.0957l4.04981,0l0,4.04981l-4.04981,0l0,-4.04981l0,0z" id="path107" stroke-miterlimit="10" stroke-width="0.1011" fill-rule="evenodd"/>
   <path d="m47.03418,16.14551l4.05029,0l0,4.0498l-4.05029,0l0,-4.0498l0,0z" id="path109" stroke-miterlimit="10" stroke-width="0.1011" fill-rule="evenodd"/>
   <path d="m6.37695,7.75293l154.33203,0l0,227.22266l-154.33203,0l0,-227.22266z" id="path111" fill="none"/>
   <path d="m47.03418,8.04541l4.05029,0l0,4.05029l-4.05029,0l0,-4.05029l0,0z" id="path113" stroke-miterlimit="10" stroke-width="0.1011" fill-rule="evenodd"/>
   <path d="m59.18457,12.0957l4.04981,0l0,4.04981l-4.04981,0l0,-4.04981l0,0z" id="path115" stroke-miterlimit="10" stroke-width="0.1011" fill-rule="evenodd"/>
   <path d="m6.37695,7.75293l154.33203,0l0,227.22266l-154.33203,0l0,-227.22266z" id="path117" fill="none"/>
   <path d="m55.13428,16.14551l4.05029,0l0,4.0498l-4.05029,0l0,-4.0498l0,0z" id="path119" stroke-miterlimit="10" stroke-width="0.1011" fill-rule="evenodd"/>
   <path d="m55.13428,8.04541l4.05029,0l0,4.05029l-4.05029,0l0,-4.05029l0,0z" id="path121" stroke-miterlimit="10" stroke-width="0.1011" fill-rule="evenodd"/>
   <path d="m6.37695,7.75293l154.33203,0l0,227.22266l-154.33203,0l0,-227.22266z" id="path123" fill="none"/>
   <path d="m67.28418,12.0957l4.05029,0l0,4.04981l-4.05029,0l0,-4.04981l0,0z" id="path125" stroke-miterlimit="10" stroke-width="0.1011" fill-rule="evenodd"/>
   <path d="m63.23438,16.14551l4.0498,0l0,4.0498l-4.0498,0l0,-4.0498z" id="path127" stroke-miterlimit="10" stroke-width="0.1011" fill-rule="evenodd"/>
   <path d="m6.37695,7.75293l154.33203,0l0,227.22266l-154.33203,0l0,-227.22266z" id="path129" fill="none"/>
   <path d="m63.23438,8.04541l4.0498,0l0,4.05029l-4.0498,0l0,-4.05029z" id="path131" stroke-miterlimit="10" stroke-width="0.1011" fill-rule="evenodd"/>
   <path d="m75.38428,12.0957l4.05029,0l0,4.04981l-4.05029,0l0,-4.04981l0,0z" id="path133" stroke-miterlimit="10" stroke-width="0.1011" fill-rule="evenodd"/>
   <path d="m6.37695,7.75293l154.33203,0l0,227.22266l-154.33203,0l0,-227.22266z" id="path135" fill="none"/>
   <path d="m71.33447,16.14551l4.04981,0l0,4.0498l-4.04981,0l0,-4.0498z" id="path137" stroke-miterlimit="10" stroke-width="0.1011" fill-rule="evenodd"/>
   <path d="m71.33447,8.04541l4.04981,0l0,4.05029l-4.04981,0l0,-4.05029z" id="path139" stroke-miterlimit="10" stroke-width="0.1011" fill-rule="evenodd"/>
   <path d="m6.37695,7.75293l154.33203,0l0,227.22266l-154.33203,0l0,-227.22266z" id="path141" fill="none"/>
   <path d="m83.48438,12.0957l4.0498,0l0,4.04981l-4.0498,0l0,-4.04981l0,0z" id="path143" stroke-miterlimit="10" stroke-width="0.1011" fill-rule="evenodd"/>
   <path d="m79.43457,16.14551l4.04981,0l0,4.0498l-4.04981,0l0,-4.0498z" id="path145" stroke-miterlimit="10" stroke-width="0.1011" fill-rule="evenodd"/>
   <path d="m6.37695,7.75293l154.33203,0l0,227.22266l-154.33203,0l0,-227.22266z" id="path147" fill="none"/>
   <path d="m79.43457,8.04541l4.04981,0l0,4.05029l-4.04981,0l0,-4.05029z" id="path149" stroke-miterlimit="10" stroke-width="0.1011" fill-rule="evenodd"/>
   <path d="m91.58398,12.0957l4.05079,0l0,4.04981l-4.05079,0l0,-4.04981l0,0z" id="path151" stroke-miterlimit="10" stroke-width="0.1011" fill-rule="evenodd"/>
   <path d="m6.37695,7.75293l154.33203,0l0,227.22266l-154.33203,0l0,-227.22266z" id="path153" fill="none"/>
   <path d="m87.53418,16.14551l4.0498,0l0,4.0498l-4.0498,0l0,-4.0498z" id="path155" stroke-miterlimit="10" stroke-width="0.1011" fill-rule="evenodd"/>
   <path d="m87.53418,8.04541l4.0498,0l0,4.05029l-4.0498,0l0,-4.05029z" id="path157" stroke-miterlimit="10" stroke-width="0.1011" fill-rule="evenodd"/>
   <path d="m6.37695,7.75293l154.33203,0l0,227.22266l-154.33203,0l0,-227.22266z" id="path159" fill="none"/>
   <path d="m99.68457,12.0957l4.04981,0l0,4.04981l-4.04981,0l0,-4.04981l0,0z" id="path161" stroke-miterlimit="10" stroke-width="0.1011" fill-rule="evenodd"/>
   <path d="m95.63477,16.14551l4.0498,0l0,4.0498l-4.0498,0l0,-4.0498z" id="path163" stroke-miterlimit="10" stroke-width="0.1011" fill-rule="evenodd"/>
   <path d="m6.37695,7.75293l154.33203,0l0,227.22266l-154.33203,0l0,-227.22266z" id="path165" fill="none"/>
   <path d="m95.63477,8.04541l4.0498,0l0,4.05029l-4.0498,0l0,-4.05029z" id="path167" stroke-miterlimit="10" stroke-width="0.1011" fill-rule="evenodd"/>
   <path d="m107.78418,12.0957l4.0498,0l0,4.04981l-4.0498,0l0,-4.04981l0,0z" id="path169" stroke-miterlimit="10" stroke-width="0.1011" fill-rule="evenodd"/>
   <path d="m6.37695,7.75293l154.33203,0l0,227.22266l-154.33203,0l0,-227.22266z" id="path171" fill="none"/>
   <path d="m103.73438,16.14551l4.0498,0l0,4.0498l-4.0498,0l0,-4.0498z" id="path173" stroke-miterlimit="10" stroke-width="0.1011" fill-rule="evenodd"/>
   <path d="m103.73438,8.04541l4.0498,0l0,4.05029l-4.0498,0l0,-4.05029z" id="path175" stroke-miterlimit="10" stroke-width="0.1011" fill-rule="evenodd"/>
   <path d="m6.37695,7.75293l154.33203,0l0,227.22266l-154.33203,0l0,-227.22266z" id="path177" fill="none"/>
   <path d="m115.88477,12.0957l4.0498,0l0,4.04981l-4.0498,0l0,-4.04981l0,0z" id="path179" stroke-miterlimit="10" stroke-width="0.1011" fill-rule="evenodd"/>
   <path d="m111.83398,16.14551l4.05079,0l0,4.0498l-4.05079,0l0,-4.0498z" id="path181" stroke-miterlimit="10" stroke-width="0.1011" fill-rule="evenodd"/>
   <path d="m6.37695,7.75293l154.33203,0l0,227.22266l-154.33203,0l0,-227.22266z" id="path183" fill="none"/>
   <path d="m111.83398,8.04541l4.05079,0l0,4.05029l-4.05079,0l0,-4.05029z" id="path185" stroke-miterlimit="10" stroke-width="0.1011" fill-rule="evenodd"/>
   <path d="m123.98438,12.0957l4.0498,0l0,4.04981l-4.0498,0l0,-4.04981l0,0z" id="path187" stroke-miterlimit="10" stroke-width="0.1011" fill-rule="evenodd"/>
   <path d="m6.37695,7.75293l154.33203,0l0,227.22266l-154.33203,0l0,-227.22266z" id="path189" fill="none"/>
   <path d="m119.93457,16.14551l4.04981,0l0,4.0498l-4.04981,0l0,-4.0498z" id="path191" stroke-miterlimit="10" stroke-width="0.1011" fill-rule="evenodd"/>
   <path d="m119.93457,8.04541l4.04981,0l0,4.05029l-4.04981,0l0,-4.05029z" id="path193" stroke-miterlimit="10" stroke-width="0.1011" fill-rule="evenodd"/>
   <path d="m6.37695,7.75293l154.33203,0l0,227.22266l-154.33203,0l0,-227.22266z" id="path195" fill="none"/>
   <path d="m132.08398,12.0957l4.05079,0l0,4.04981l-4.05079,0l0,-4.04981l0,0z" id="path197" stroke-miterlimit="10" stroke-width="0.1011" fill-rule="evenodd"/>
   <path d="m128.03418,16.14551l4.0498,0l0,4.0498l-4.0498,0l0,-4.0498z" id="path199" stroke-miterlimit="10" stroke-width="0.1011" fill-rule="evenodd"/>
   <path d="m6.37695,7.75293l154.33203,0l0,227.22266l-154.33203,0l0,-227.22266z" id="path201" fill="none"/>
   <path d="m128.03418,8.04541l4.0498,0l0,4.05029l-4.0498,0l0,-4.05029z" id="path203" stroke-miterlimit="10" stroke-width="0.1011" fill-rule="evenodd"/>
   <path d="m140.18457,12.0957l4.04981,0l0,4.04981l-4.04981,0l0,-4.04981l0,0z" id="path205" stroke-miterlimit="10" stroke-width="0.1011" fill-rule="evenodd"/>
   <path d="m6.37695,7.75293l154.33203,0l0,227.22266l-154.33203,0l0,-227.22266z" id="path207" fill="none"/>
   <path d="m136.13477,16.14551l4.0498,0l0,4.0498l-4.0498,0l0,-4.0498z" id="path209" stroke-miterlimit="10" stroke-width="0.1011" fill-rule="evenodd"/>
   <path d="m136.13477,8.04541l4.0498,0l0,4.05029l-4.0498,0l0,-4.05029z" id="path211" stroke-miterlimit="10" stroke-width="0.1011" fill-rule="evenodd"/>
   <path d="m6.37695,7.75293l154.33203,0l0,227.22266l-154.33203,0l0,-227.22266z" id="path213" fill="none"/>
   <path d="m14.63428,72.8457l4.05029,0l0,4.04981l-4.05029,0l0,-4.04981z" id="path215" stroke-miterlimit="10" stroke-width="0.1011" fill-rule="evenodd"/>
   <path d="m14.63428,80.94531l4.05029,0l0,4.05029l-4.05029,0l0,-4.05029z" id="path217" stroke-miterlimit="10" stroke-width="0.1011" fill-rule="evenodd"/>
   <path d="m6.37695,7.75293l154.33203,0l0,227.22266l-154.33203,0l0,-227.22266z" id="path219" fill="none"/>
   <path d="m10.58447,68.79541l4.04981,0l0,4.05029l-4.04981,0l0,-4.05029z" id="path221" stroke-miterlimit="10" stroke-width="0.1011" fill-rule="evenodd"/>
   <path d="m10.58447,76.89551l4.04981,0l0,4.0498l-4.04981,0l0,-4.0498z" id="path223" stroke-miterlimit="10" stroke-width="0.1011" fill-rule="evenodd"/>
   <path d="m6.37695,7.75293l154.33203,0l0,227.22266l-154.33203,0l0,-227.22266z" id="path225" fill="none"/>
   <path d="m6.53418,80.94531l4.05029,0l0,4.05029l-4.05029,0l0,-4.05029l0,0z" id="path227" stroke-miterlimit="10" stroke-width="0.1011" fill-rule="evenodd"/>
   <path d="m6.53418,72.8457l4.05029,0l0,4.04981l-4.05029,0l0,-4.04981l0,0z" id="path229" stroke-miterlimit="10" stroke-width="0.1011" fill-rule="evenodd"/>
   <path d="m6.37695,7.75293l154.33203,0l0,227.22266l-154.33203,0l0,-227.22266z" id="path231" fill="none"/>
   <path d="m14.63428,89.04541l4.05029,0l0,4.05029l-4.05029,0l0,-4.05029z" id="path233" stroke-miterlimit="10" stroke-width="0.1011" fill-rule="evenodd"/>
   <path d="m14.63428,97.14551l4.05029,0l0,4.0498l-4.05029,0l0,-4.0498z" id="path235" stroke-miterlimit="10" stroke-width="0.1011" fill-rule="evenodd"/>
   <path d="m6.37695,7.75293l154.33203,0l0,227.22266l-154.33203,0l0,-227.22266z" id="path237" fill="none"/>
   <path d="m10.58447,84.9956l4.04981,0l0,4.04981l-4.04981,0l0,-4.04981z" id="path239" stroke-miterlimit="10" stroke-width="0.1011" fill-rule="evenodd"/>
   <path d="m10.58447,93.0957l4.04981,0l0,4.04981l-4.04981,0l0,-4.04981z" id="path241" stroke-miterlimit="10" stroke-width="0.1011" fill-rule="evenodd"/>
   <path d="m6.37695,7.75293l154.33203,0l0,227.22266l-154.33203,0l0,-227.22266z" id="path243" fill="none"/>
   <path d="m6.53418,97.14551l4.05029,0l0,4.0498l-4.05029,0l0,-4.0498l0,0z" id="path245" stroke-miterlimit="10" stroke-width="0.1011" fill-rule="evenodd"/>
   <path d="m6.53418,89.04541l4.05029,0l0,4.05029l-4.05029,0l0,-4.05029l0,0z" id="path247" stroke-miterlimit="10" stroke-width="0.1011" fill-rule="evenodd"/>
   <path d="m6.37695,7.75293l154.33203,0l0,227.22266l-154.33203,0l0,-227.22266z" id="path249" fill="none"/>
   <path d="m14.63428,105.24561l4.05029,0l0,4.0498l-4.05029,0l0,-4.0498z" id="path251" stroke-miterlimit="10" stroke-width="0.1011" fill-rule="evenodd"/>
   <path d="m14.63428,113.3457l4.05029,0l0,4.04981l-4.05029,0l0,-4.04981z" id="path253" stroke-miterlimit="10" stroke-width="0.1011" fill-rule="evenodd"/>
   <path d="m6.37695,7.75293l154.33203,0l0,227.22266l-154.33203,0l0,-227.22266z" id="path255" fill="none"/>
   <path d="m10.58447,101.19531l4.04981,0l0,4.0503l-4.04981,0l0,-4.0503z" id="path257" stroke-miterlimit="10" stroke-width="0.1011" fill-rule="evenodd"/>
   <path d="m10.58447,109.29541l4.04981,0l0,4.05029l-4.04981,0l0,-4.05029z" id="path259" stroke-miterlimit="10" stroke-width="0.1011" fill-rule="evenodd"/>
   <path d="m6.37695,7.75293l154.33203,0l0,227.22266l-154.33203,0l0,-227.22266z" id="path261" fill="none"/>
   <path d="m6.53418,113.3457l4.05029,0l0,4.04981l-4.05029,0l0,-4.04981l0,0z" id="path263" stroke-miterlimit="10" stroke-width="0.1011" fill-rule="evenodd"/>
   <path d="m6.53418,105.24561l4.05029,0l0,4.0498l-4.05029,0l0,-4.0498l0,0z" id="path265" stroke-miterlimit="10" stroke-width="0.1011" fill-rule="evenodd"/>
   <path d="m6.37695,7.75293l154.33203,0l0,227.22266l-154.33203,0l0,-227.22266z" id="path267" fill="none"/>
   <path d="m14.63428,121.44531l4.05029,0l0,4.04981l-4.05029,0l0,-4.04981z" id="path269" stroke-miterlimit="10" stroke-width="0.1011" fill-rule="evenodd"/>
   <path d="m14.63428,129.5459l4.05029,0l0,4.04883l-4.05029,0l0,-4.04883z" id="path271" stroke-miterlimit="10" stroke-width="0.1011" fill-rule="evenodd"/>
   <path d="m6.37695,7.75293l154.33203,0l0,227.22266l-154.33203,0l0,-227.22266z" id="path273" fill="none"/>
   <path d="m10.58447,117.39551l4.04981,0l0,4.0498l-4.04981,0l0,-4.0498z" id="path275" stroke-miterlimit="10" stroke-width="0.1011" fill-rule="evenodd"/>
   <path d="m10.58447,125.49512l4.04981,0l0,4.05078l-4.04981,0l0,-4.05078z" id="path277" stroke-miterlimit="10" stroke-width="0.1011" fill-rule="evenodd"/>
   <path d="m6.37695,7.75293l154.33203,0l0,227.22266l-154.33203,0l0,-227.22266z" id="path279" fill="none"/>
   <path d="m6.53418,129.5459l4.05029,0l0,4.04883l-4.05029,0l0,-4.04883l0,0z" id="path281" stroke-miterlimit="10" stroke-width="0.1011" fill-rule="evenodd"/>
   <path d="m6.53418,121.44531l4.05029,0l0,4.04981l-4.05029,0l0,-4.04981l0,0z" id="path283" stroke-miterlimit="10" stroke-width="0.1011" fill-rule="evenodd"/>
   <path d="m6.37695,7.75293l154.33203,0l0,227.22266l-154.33203,0l0,-227.22266z" id="path285" fill="none"/>
   <path d="m14.63428,137.64551l4.05029,0l0,4.0498l-4.05029,0l0,-4.0498z" id="path287" stroke-miterlimit="10" stroke-width="0.1011" fill-rule="evenodd"/>
   <path d="m14.63428,145.74512l4.05029,0l0,4.05078l-4.05029,0l0,-4.05078z" id="path289" stroke-miterlimit="10" stroke-width="0.1011" fill-rule="evenodd"/>
   <path d="m6.37695,7.75293l154.33203,0l0,227.22266l-154.33203,0l0,-227.22266z" id="path291" fill="none"/>
   <path d="m10.58447,133.59473l4.04981,0l0,4.05078l-4.04981,0l0,-4.05078z" id="path293" stroke-miterlimit="10" stroke-width="0.1011" fill-rule="evenodd"/>
   <path d="m10.58447,141.69531l4.04981,0l0,4.04981l-4.04981,0l0,-4.04981z" id="path295" stroke-miterlimit="10" stroke-width="0.1011" fill-rule="evenodd"/>
   <path d="m6.37695,7.75293l154.33203,0l0,227.22266l-154.33203,0l0,-227.22266z" id="path297" fill="none"/>
   <path d="m6.53418,145.74512l4.05029,0l0,4.05078l-4.05029,0l0,-4.05078l0,0z" id="path299" stroke-miterlimit="10" stroke-width="0.1011" fill-rule="evenodd"/>
   <path d="m6.53418,137.64551l4.05029,0l0,4.0498l-4.05029,0l0,-4.0498l0,0z" id="path301" stroke-miterlimit="10" stroke-width="0.1011" fill-rule="evenodd"/>
   <path d="m6.37695,7.75293l154.33203,0l0,227.22266l-154.33203,0l0,-227.22266z" id="path303" fill="none"/>
   <path d="m14.63428,153.84473l4.05029,0l0,4.05078l-4.05029,0l0,-4.05078z" id="path305" stroke-miterlimit="10" stroke-width="0.1011" fill-rule="evenodd"/>
   <path d="m14.63428,161.94531l4.05029,0l0,4.04981l-4.05029,0l0,-4.04981z" id="path307" stroke-miterlimit="10" stroke-width="0.1011" fill-rule="evenodd"/>
   <path d="m6.37695,7.75293l154.33203,0l0,227.22266l-154.33203,0l0,-227.22266z" id="path309" fill="none"/>
   <path d="m10.58447,149.7959l4.04981,0l0,4.04883l-4.04981,0l0,-4.04883z" id="path311" stroke-miterlimit="10" stroke-width="0.1011" fill-rule="evenodd"/>
   <path d="m10.58447,157.89551l4.04981,0l0,4.0498l-4.04981,0l0,-4.0498z" id="path313" stroke-miterlimit="10" stroke-width="0.1011" fill-rule="evenodd"/>
   <path d="m6.37695,7.75293l154.33203,0l0,227.22266l-154.33203,0l0,-227.22266z" id="path315" fill="none"/>
   <path d="m6.53418,161.94531l4.05029,0l0,4.04981l-4.05029,0l0,-4.04981l0,0z" id="path317" stroke-miterlimit="10" stroke-width="0.1011" fill-rule="evenodd"/>
   <path d="m6.53418,153.84473l4.05029,0l0,4.05078l-4.05029,0l0,-4.05078l0,0z" id="path319" stroke-miterlimit="10" stroke-width="0.1011" fill-rule="evenodd"/>
   <path d="m6.37695,7.75293l154.33203,0l0,227.22266l-154.33203,0l0,-227.22266z" id="path321" fill="none"/>
   <path d="m14.63428,170.0459l4.05029,0l0,4.04883l-4.05029,0l0,-4.04883z" id="path323" stroke-miterlimit="10" stroke-width="0.1011" fill-rule="evenodd"/>
   <path d="m14.63428,178.14551l4.05029,0l0,4.0498l-4.05029,0l0,-4.0498z" id="path325" stroke-miterlimit="10" stroke-width="0.1011" fill-rule="evenodd"/>
   <path d="m6.37695,7.75293l154.33203,0l0,227.22266l-154.33203,0l0,-227.22266z" id="path327" fill="none"/>
   <path d="m10.58447,165.99512l4.04981,0l0,4.05078l-4.04981,0l0,-4.05078z" id="path329" stroke-miterlimit="10" stroke-width="0.1011" fill-rule="evenodd"/>
   <path d="m10.58447,174.09473l4.04981,0l0,4.05078l-4.04981,0l0,-4.05078z" id="path331" stroke-miterlimit="10" stroke-width="0.1011" fill-rule="evenodd"/>
   <path d="m6.37695,7.75293l154.33203,0l0,227.22266l-154.33203,0l0,-227.22266z" id="path333" fill="none"/>
   <path d="m6.53418,178.14551l4.05029,0l0,4.0498l-4.05029,0l0,-4.0498l0,0z" id="path335" stroke-miterlimit="10" stroke-width="0.1011" fill-rule="evenodd"/>
   <path d="m6.53418,170.0459l4.05029,0l0,4.04883l-4.05029,0l0,-4.04883l0,0z" id="path337" stroke-miterlimit="10" stroke-width="0.1011" fill-rule="evenodd"/>
   <path d="m6.37695,7.75293l154.33203,0l0,227.22266l-154.33203,0l0,-227.22266z" id="path339" fill="none"/>
   <path d="m14.63428,186.24512l4.05029,0l0,4.05078l-4.05029,0l0,-4.05078z" id="path341" stroke-miterlimit="10" stroke-width="0.1011" fill-rule="evenodd"/>
   <path d="m14.63428,194.34473l4.05029,0l0,4.05078l-4.05029,0l0,-4.05078z" id="path343" stroke-miterlimit="10" stroke-width="0.1011" fill-rule="evenodd"/>
   <path d="m6.37695,7.75293l154.33203,0l0,227.22266l-154.33203,0l0,-227.22266z" id="path345" fill="none"/>
   <path d="m10.58447,182.19531l4.04981,0l0,4.04981l-4.04981,0l0,-4.04981z" id="path347" stroke-miterlimit="10" stroke-width="0.1011" fill-rule="evenodd"/>
   <path d="m10.58447,190.2959l4.04981,0l0,4.04883l-4.04981,0l0,-4.04883z" id="path349" stroke-miterlimit="10" stroke-width="0.1011" fill-rule="evenodd"/>
   <path d="m6.37695,7.75293l154.33203,0l0,227.22266l-154.33203,0l0,-227.22266z" id="path351" fill="none"/>
   <path d="m6.53418,194.34473l4.05029,0l0,4.05078l-4.05029,0l0,-4.05078l0,0z" id="path353" stroke-miterlimit="10" stroke-width="0.1011" fill-rule="evenodd"/>
   <path d="m6.53418,186.24512l4.05029,0l0,4.05078l-4.05029,0l0,-4.05078l0,0z" id="path355" stroke-miterlimit="10" stroke-width="0.1011" fill-rule="evenodd"/>
   <path d="m6.37695,7.75293l154.33203,0l0,227.22266l-154.33203,0l0,-227.22266z" id="path357" fill="none"/>
   <path d="m14.63428,202.44531l4.05029,0l0,4.04981l-4.05029,0l0,-4.04981z" id="path359" stroke-miterlimit="10" stroke-width="0.1011" fill-rule="evenodd"/>
   <path d="m14.63428,210.5459l4.05029,0l0,4.04883l-4.05029,0l0,-4.04883z" id="path361" stroke-miterlimit="10" stroke-width="0.1011" fill-rule="evenodd"/>
   <path d="m6.37695,7.75293l154.33203,0l0,227.22266l-154.33203,0l0,-227.22266z" id="path363" fill="none"/>
   <path d="m10.58447,198.39551l4.04981,0l0,4.0498l-4.04981,0l0,-4.0498z" id="path365" stroke-miterlimit="10" stroke-width="0.1011" fill-rule="evenodd"/>
   <path d="m10.58447,206.49512l4.04981,0l0,4.05078l-4.04981,0l0,-4.05078z" id="path367" stroke-miterlimit="10" stroke-width="0.1011" fill-rule="evenodd"/>
   <path d="m6.37695,7.75293l154.33203,0l0,227.22266l-154.33203,0l0,-227.22266z" id="path369" fill="none"/>
   <path d="m6.53418,210.5459l4.05029,0l0,4.04883l-4.05029,0l0,-4.04883l0,0z" id="path371" stroke-miterlimit="10" stroke-width="0.1011" fill-rule="evenodd"/>
   <path d="m6.53418,202.44531l4.05029,0l0,4.04981l-4.05029,0l0,-4.04981l0,0z" id="path373" stroke-miterlimit="10" stroke-width="0.1011" fill-rule="evenodd"/>
   <path d="m6.37695,7.75293l154.33203,0l0,227.22266l-154.33203,0l0,-227.22266z" id="path375" fill="none"/>
   <path d="m10.58447,214.59473l4.04981,0l0,4.05078l-4.04981,0l0,-4.05078z" id="path377" stroke-miterlimit="10" stroke-width="0.1011" fill-rule="evenodd"/>
   <path d="m14.63428,218.64551l4.05029,0l0,4.0498l-4.05029,0l0,-4.0498z" id="path379" stroke-miterlimit="10" stroke-width="0.1011" fill-rule="evenodd"/>
   <path d="m6.37695,7.75293l154.33203,0l0,227.22266l-154.33203,0l0,-227.22266z" id="path381" fill="none"/>
   <path d="m6.53418,218.64551l4.05029,0l0,4.0498l-4.05029,0l0,-4.0498l0,0z" id="path383" stroke-miterlimit="10" stroke-width="0.1011" fill-rule="evenodd"/>
   <path d="m10.58447,222.69531l4.04981,0l0,4.04981l-4.04981,0l0,-4.04981z" id="path385" stroke-miterlimit="10" stroke-width="0.1011" fill-rule="evenodd"/>
   <path d="m6.37695,7.75293l154.33203,0l0,227.22266l-154.33203,0l0,-227.22266z" id="path387" fill="none"/>
   <path d="m144.23438,8.04541l4.0498,0l0,4.05029l-4.0498,0l0,-4.05029z" id="path389" stroke-miterlimit="10" stroke-width="0.1011" fill-rule="evenodd"/>
   <path d="m144.23438,16.14551l4.0498,0l0,4.0498l-4.0498,0l0,-4.0498z" id="path391" stroke-miterlimit="10" stroke-width="0.1011" fill-rule="evenodd"/>
   <path d="m6.37695,7.75293l154.33203,0l0,227.22266l-154.33203,0l0,-227.22266z" id="path393" fill="none"/>
   <path d="m148.28418,12.0957l4.0498,0l0,4.04981l-4.0498,0l0,-4.04981l0,0z" id="path395" stroke-miterlimit="10" stroke-width="0.1011" fill-rule="evenodd"/>
   <path d="m152.33398,8.04541l4.05079,0l0,4.05029l-4.05079,0l0,-4.05029z" id="path397" stroke-miterlimit="10" stroke-width="0.1011" fill-rule="evenodd"/>
   <path d="m6.37695,7.75293l154.33203,0l0,227.22266l-154.33203,0l0,-227.22266z" id="path399" fill="none"/>
   <path d="m156.38477,12.0957l4.0498,0l0,4.04981l-4.0498,0l0,-4.04981l0,0z" id="path401" stroke-miterlimit="10" stroke-width="0.1011" fill-rule="evenodd"/>
   <path d="m152.33398,16.14551l4.05079,0l0,4.0498l-4.05079,0l0,-4.0498z" id="path403" stroke-miterlimit="10" stroke-width="0.1011" fill-rule="evenodd"/>
   <path d="m6.37695,7.75293l154.33203,0l0,227.22266l-154.33203,0l0,-227.22266z" id="path405" fill="none"/>
   <path d="m18.68457,20.19531l129.59961,0l0,202.5l-129.59961,0l0,-202.5z" id="path407" stroke-miterlimit="10" stroke-width="0.60658" fill="none"/>
   <path d="m148.28418,28.29541l4.0498,0l0,4.05029l-4.0498,0l0,-4.05029l0,0z" id="path409" stroke-miterlimit="10" stroke-width="0.1011" fill-rule="evenodd"/>
   <path d="m6.37695,7.75293l154.33203,0l0,227.22266l-154.33203,0l0,-227.22266z" id="path411" fill="none"/>
   <path d="m148.28418,36.39551l4.0498,0l0,4.0498l-4.0498,0l0,-4.0498z" id="path413" stroke-miterlimit="10" stroke-width="0.1011" fill-rule="evenodd"/>
   <path d="m156.38477,36.39551l4.0498,0l0,4.0498l-4.0498,0l0,-4.0498z" id="path415" stroke-miterlimit="10" stroke-width="0.1011" fill-rule="evenodd"/>
   <path d="m6.37695,7.75293l154.33203,0l0,227.22266l-154.33203,0l0,-227.22266z" id="path417" fill="none"/>
   <path d="m156.38477,28.29541l4.0498,0l0,4.05029l-4.0498,0l0,-4.05029l0,0z" id="path419" stroke-miterlimit="10" stroke-width="0.1011" fill-rule="evenodd"/>
   <path d="m152.33398,32.3457l4.05079,0l0,4.04981l-4.05079,0l0,-4.04981z" id="path421" stroke-miterlimit="10" stroke-width="0.1011" fill-rule="evenodd"/>
   <path d="m6.37695,7.75293l154.33203,0l0,227.22266l-154.33203,0l0,-227.22266z" id="path423" fill="none"/>
   <path d="m152.33398,24.24561l4.05079,0l0,4.0498l-4.05079,0l0,-4.0498z" id="path425" stroke-miterlimit="10" stroke-width="0.1011" fill-rule="evenodd"/>
   <path d="m156.38477,157.89551l4.0498,0l0,4.0498l-4.0498,0l0,-4.0498z" id="path427" stroke-miterlimit="10" stroke-width="0.1011" fill-rule="evenodd"/>
   <path d="m6.37695,7.75293l154.33203,0l0,227.22266l-154.33203,0l0,-227.22266z" id="path429" fill="none"/>
   <path d="m152.33398,153.84473l4.05079,0l0,4.05078l-4.05079,0l0,-4.05078z" id="path431" stroke-miterlimit="10" stroke-width="0.1011" fill-rule="evenodd"/>
   <path d="m148.28418,157.89551l4.0498,0l0,4.0498l-4.0498,0l0,-4.0498z" id="path433" stroke-miterlimit="10" stroke-width="0.1011" fill-rule="evenodd"/>
   <path d="m6.37695,7.75293l154.33203,0l0,227.22266l-154.33203,0l0,-227.22266z" id="path435" fill="none"/>
   <path d="m156.38477,141.69531l4.0498,0l0,4.04981l-4.0498,0l0,-4.04981z" id="path437" stroke-miterlimit="10" stroke-width="0.1011" fill-rule="evenodd"/>
   <path d="m156.38477,149.7959l4.0498,0l0,4.04883l-4.0498,0l0,-4.04883z" id="path439" stroke-miterlimit="10" stroke-width="0.1011" fill-rule="evenodd"/>
   <path d="m6.37695,7.75293l154.33203,0l0,227.22266l-154.33203,0l0,-227.22266z" id="path441" fill="none"/>
   <path d="m152.33398,137.64551l4.05079,0l0,4.0498l-4.05079,0l0,-4.0498z" id="path443" stroke-miterlimit="10" stroke-width="0.1011" fill-rule="evenodd"/>
   <path d="m152.33398,145.74512l4.05079,0l0,4.05078l-4.05079,0l0,-4.05078z" id="path445" stroke-miterlimit="10" stroke-width="0.1011" fill-rule="evenodd"/>
   <path d="m6.37695,7.75293l154.33203,0l0,227.22266l-154.33203,0l0,-227.22266z" id="path447" fill="none"/>
   <path d="m148.28418,149.7959l4.0498,0l0,4.04883l-4.0498,0l0,-4.04883z" id="path449" stroke-miterlimit="10" stroke-width="0.1011" fill-rule="evenodd"/>
   <path d="m148.28418,141.69531l4.0498,0l0,4.04981l-4.0498,0l0,-4.04981z" id="path451" stroke-miterlimit="10" stroke-width="0.1011" fill-rule="evenodd"/>
   <path d="m6.37695,7.75293l154.33203,0l0,227.22266l-154.33203,0l0,-227.22266z" id="path453" fill="none"/>
   <path d="m156.38477,125.49512l4.0498,0l0,4.05078l-4.0498,0l0,-4.05078z" id="path455" stroke-miterlimit="10" stroke-width="0.1011" fill-rule="evenodd"/>
   <path d="m156.38477,133.59473l4.0498,0l0,4.05078l-4.0498,0l0,-4.05078z" id="path457" stroke-miterlimit="10" stroke-width="0.1011" fill-rule="evenodd"/>
   <path d="m6.37695,7.75293l154.33203,0l0,227.22266l-154.33203,0l0,-227.22266z" id="path459" fill="none"/>
   <path d="m152.33398,121.44531l4.05079,0l0,4.04981l-4.05079,0l0,-4.04981z" id="path461" stroke-miterlimit="10" stroke-width="0.1011" fill-rule="evenodd"/>
   <path d="m152.33398,129.5459l4.05079,0l0,4.04883l-4.05079,0l0,-4.04883z" id="path463" stroke-miterlimit="10" stroke-width="0.1011" fill-rule="evenodd"/>
   <path d="m6.37695,7.75293l154.33203,0l0,227.22266l-154.33203,0l0,-227.22266z" id="path465" fill="none"/>
   <path d="m148.28418,133.59473l4.0498,0l0,4.05078l-4.0498,0l0,-4.05078z" id="path467" stroke-miterlimit="10" stroke-width="0.1011" fill-rule="evenodd"/>
   <path d="m148.28418,125.49512l4.0498,0l0,4.05078l-4.0498,0l0,-4.05078z" id="path469" stroke-miterlimit="10" stroke-width="0.1011" fill-rule="evenodd"/>
   <path d="m6.37695,7.75293l154.33203,0l0,227.22266l-154.33203,0l0,-227.22266z" id="path471" fill="none"/>
   <path d="m156.38477,109.29541l4.0498,0l0,4.05029l-4.0498,0l0,-4.05029z" id="path473" stroke-miterlimit="10" stroke-width="0.1011" fill-rule="evenodd"/>
   <path d="m156.38477,117.39551l4.0498,0l0,4.0498l-4.0498,0l0,-4.0498z" id="path475" stroke-miterlimit="10" stroke-width="0.1011" fill-rule="evenodd"/>
   <path d="m6.37695,7.41497l154.33203,0l0,227.22266l-154.33203,0l0,-227.22266z" id="path477" fill="none"/>
   <path d="m152.33398,104.90765l4.05079,0l0,4.0498l-4.05079,0l0,-4.0498z" id="path479" stroke-miterlimit="10" stroke-width="0.1011" fill-rule="evenodd"/>
   <path d="m152.33398,113.00774l4.05079,0l0,4.04981l-4.05079,0l0,-4.04981z" id="path481" stroke-miterlimit="10" stroke-width="0.1011" fill-rule="evenodd"/>
   <path d="m6.37695,7.41497l154.33203,0l0,227.22266l-154.33203,0l0,-227.22266z" id="path483" fill="none"/>
   <path d="m148.28418,117.05755l4.0498,0l0,4.0498l-4.0498,0l0,-4.0498z" id="path485" stroke-miterlimit="10" stroke-width="0.1011" fill-rule="evenodd"/>
   <path d="m148.28418,108.95745l4.0498,0l0,4.05029l-4.0498,0l0,-4.05029z" id="path487" stroke-miterlimit="10" stroke-width="0.1011" fill-rule="evenodd"/>
   <path d="m6.37695,7.41497l154.33203,0l0,227.22266l-154.33203,0l0,-227.22266z" id="path489" fill="none"/>
   <path d="m156.38477,92.75774l4.0498,0l0,4.04981l-4.0498,0l0,-4.04981z" id="path491" stroke-miterlimit="10" stroke-width="0.1011" fill-rule="evenodd"/>
   <path d="m156.38477,100.85735l4.0498,0l0,4.0503l-4.0498,0l0,-4.0503z" id="path493" stroke-miterlimit="10" stroke-width="0.1011" fill-rule="evenodd"/>
   <path d="m6.37695,7.41497l154.33203,0l0,227.22266l-154.33203,0l0,-227.22266z" id="path495" fill="none"/>
   <path d="m152.33398,88.70745l4.05079,0l0,4.05029l-4.05079,0l0,-4.05029z" id="path497" stroke-miterlimit="10" stroke-width="0.1011" fill-rule="evenodd"/>
   <path d="m152.33398,96.80755l4.05079,0l0,4.0498l-4.05079,0l0,-4.0498z" id="path499" stroke-miterlimit="10" stroke-width="0.1011" fill-rule="evenodd"/>
   <path d="m6.37695,7.41497l154.33203,0l0,227.22266l-154.33203,0l0,-227.22266z" id="path501" fill="none"/>
   <path d="m148.28418,100.85735l4.0498,0l0,4.0503l-4.0498,0l0,-4.0503z" id="path503" stroke-miterlimit="10" stroke-width="0.1011" fill-rule="evenodd"/>
   <path d="m148.28418,92.75774l4.0498,0l0,4.04981l-4.0498,0l0,-4.04981z" id="path505" stroke-miterlimit="10" stroke-width="0.1011" fill-rule="evenodd"/>
   <path d="m6.37695,7.41497l154.33203,0l0,227.22266l-154.33203,0l0,-227.22266z" id="path507" fill="none"/>
   <path d="m156.38477,76.55755l4.0498,0l0,4.0498l-4.0498,0l0,-4.0498z" id="path509" stroke-miterlimit="10" stroke-width="0.1011" fill-rule="evenodd"/>
   <path d="m156.38477,84.65764l4.0498,0l0,4.04981l-4.0498,0l0,-4.04981z" id="path511" stroke-miterlimit="10" stroke-width="0.1011" fill-rule="evenodd"/>
   <path d="m6.37695,7.41497l154.33203,0l0,227.22266l-154.33203,0l0,-227.22266z" id="path513" fill="none"/>
   <path d="m152.33398,72.50774l4.05079,0l0,4.04981l-4.05079,0l0,-4.04981z" id="path515" stroke-miterlimit="10" stroke-width="0.1011" fill-rule="evenodd"/>
   <path d="m152.33398,80.60735l4.05079,0l0,4.05029l-4.05079,0l0,-4.05029z" id="path517" stroke-miterlimit="10" stroke-width="0.1011" fill-rule="evenodd"/>
   <path d="m6.37695,7.41497l154.33203,0l0,227.22266l-154.33203,0l0,-227.22266z" id="path519" fill="none"/>
   <path d="m148.28418,84.65764l4.0498,0l0,4.04981l-4.0498,0l0,-4.04981z" id="path521" stroke-miterlimit="10" stroke-width="0.1011" fill-rule="evenodd"/>
   <path d="m148.28418,76.55755l4.0498,0l0,4.0498l-4.0498,0l0,-4.0498z" id="path523" stroke-miterlimit="10" stroke-width="0.1011" fill-rule="evenodd"/>
   <path d="m6.37695,7.41497l154.33203,0l0,227.22266l-154.33203,0l0,-227.22266z" id="path525" fill="none"/>
   <path d="m156.38477,60.35735l4.0498,0l0,4.05029l-4.0498,0l0,-4.05029z" id="path527" stroke-miterlimit="10" stroke-width="0.1011" fill-rule="evenodd"/>
   <path d="m156.38477,68.45745l4.0498,0l0,4.05029l-4.0498,0l0,-4.05029z" id="path529" stroke-miterlimit="10" stroke-width="0.1011" fill-rule="evenodd"/>
   <path d="m6.37695,7.41497l154.33203,0l0,227.22266l-154.33203,0l0,-227.22266z" id="path531" fill="none"/>
   <path d="m152.33398,56.30755l4.05079,0l0,4.0498l-4.05079,0l0,-4.0498z" id="path533" stroke-miterlimit="10" stroke-width="0.1011" fill-rule="evenodd"/>
   <path d="m152.33398,64.40764l4.05079,0l0,4.04981l-4.05079,0l0,-4.04981z" id="path535" stroke-miterlimit="10" stroke-width="0.1011" fill-rule="evenodd"/>
   <path d="m6.37695,7.41497l154.33203,0l0,227.22266l-154.33203,0l0,-227.22266z" id="path537" fill="none"/>
   <path d="m148.28418,68.45745l4.0498,0l0,4.05029l-4.0498,0l0,-4.05029z" id="path539" stroke-miterlimit="10" stroke-width="0.1011" fill-rule="evenodd"/>
   <path d="m148.28418,60.35735l4.0498,0l0,4.05029l-4.0498,0l0,-4.05029z" id="path541" stroke-miterlimit="10" stroke-width="0.1011" fill-rule="evenodd"/>
   <path d="m6.37695,7.41497l154.33203,0l0,227.22266l-154.33203,0l0,-227.22266z" id="path543" fill="none"/>
   <path d="m156.38477,44.15765l4.0498,0l0,4.0498l-4.0498,0l0,-4.0498z" id="path545" stroke-miterlimit="10" stroke-width="0.1011" fill-rule="evenodd"/>
   <path d="m156.38477,52.25774l4.0498,0l0,4.04981l-4.0498,0l0,-4.04981z" id="path547" stroke-miterlimit="10" stroke-width="0.1011" fill-rule="evenodd"/>
   <path d="m6.37695,7.41497l154.33203,0l0,227.22266l-154.33203,0l0,-227.22266z" id="path549" fill="none"/>
   <path d="m152.33398,40.10735l4.05079,0l0,4.05029l-4.05079,0l0,-4.05029z" id="path551" stroke-miterlimit="10" stroke-width="0.1011" fill-rule="evenodd"/>
   <path d="m152.33398,48.20745l4.05079,0l0,4.05029l-4.05079,0l0,-4.05029l0,0z" id="path553" stroke-miterlimit="10" stroke-width="0.1011" fill-rule="evenodd"/>
   <path d="m6.37695,7.41497l154.33203,0l0,227.22266l-154.33203,0l0,-227.22266z" id="path555" fill="none"/>
   <path d="m148.28418,52.25774l4.0498,0l0,4.04981l-4.0498,0l0,-4.04981z" id="path557" stroke-miterlimit="10" stroke-width="0.1011" fill-rule="evenodd"/>
   <path d="m148.28418,44.15765l4.0498,0l0,4.0498l-4.0498,0l0,-4.0498z" id="path559" stroke-miterlimit="10" stroke-width="0.1011" fill-rule="evenodd"/>
   <path d="m6.37695,7.41497l154.33203,0l0,227.22266l-154.33203,0l0,-227.22266z" id="path561" fill="none"/>
   <path d="m148.28418,19.85735l4.0498,0l0,4.0503l-4.0498,0l0,-4.0503z" id="path563" stroke-miterlimit="10" stroke-width="0.1011" fill-rule="evenodd"/>
   <path d="m156.38477,19.85735l4.0498,0l0,4.0503l-4.0498,0l0,-4.0503z" id="path565" stroke-miterlimit="10" stroke-width="0.1011" fill-rule="evenodd"/>
   <path d="m6.37695,7.41497l154.33203,0l0,227.22266l-154.33203,0l0,-227.22266z" id="path567" fill="none"/>
   <path d="m156.38477,206.15716l4.0498,0l0,4.05078l-4.0498,0l0,-4.05078z" id="path569" stroke-miterlimit="10" stroke-width="0.1011" fill-rule="evenodd"/>
   <path d="m156.38477,214.25677l4.0498,0l0,4.05078l-4.0498,0l0,-4.05078z" id="path571" stroke-miterlimit="10" stroke-width="0.1011" fill-rule="evenodd"/>
   <path d="m6.37695,7.41497l154.33203,0l0,227.22266l-154.33203,0l0,-227.22266z" id="path573" fill="none"/>
   <path d="m152.33398,202.10735l4.05079,0l0,4.04981l-4.05079,0l0,-4.04981z" id="path575" stroke-miterlimit="10" stroke-width="0.1011" fill-rule="evenodd"/>
   <path d="m152.33398,210.20794l4.05079,0l0,4.04883l-4.05079,0l0,-4.04883z" id="path577" stroke-miterlimit="10" stroke-width="0.1011" fill-rule="evenodd"/>
   <path d="m6.37695,7.41497l154.33203,0l0,227.22266l-154.33203,0l0,-227.22266z" id="path579" fill="none"/>
   <path d="m148.28418,214.25677l4.0498,0l0,4.05078l-4.0498,0l0,-4.05078z" id="path581" stroke-miterlimit="10" stroke-width="0.1011" fill-rule="evenodd"/>
   <path d="m148.28418,206.15716l4.0498,0l0,4.05078l-4.0498,0l0,-4.05078z" id="path583" stroke-miterlimit="10" stroke-width="0.1011" fill-rule="evenodd"/>
   <path d="m6.37695,7.41497l154.33203,0l0,227.22266l-154.33203,0l0,-227.22266z" id="path585" fill="none"/>
   <path d="m156.38477,189.95794l4.0498,0l0,4.04883l-4.0498,0l0,-4.04883z" id="path587" stroke-miterlimit="10" stroke-width="0.1011" fill-rule="evenodd"/>
   <path d="m156.38477,198.05755l4.0498,0l0,4.0498l-4.0498,0l0,-4.0498z" id="path589" stroke-miterlimit="10" stroke-width="0.1011" fill-rule="evenodd"/>
   <path d="m6.37695,7.41497l154.33203,0l0,227.22266l-154.33203,0l0,-227.22266z" id="path591" fill="none"/>
   <path d="m152.33398,185.90716l4.05079,0l0,4.05078l-4.05079,0l0,-4.05078z" id="path593" stroke-miterlimit="10" stroke-width="0.1011" fill-rule="evenodd"/>
   <path d="m152.33398,194.00677l4.05079,0l0,4.05078l-4.05079,0l0,-4.05078z" id="path595" stroke-miterlimit="10" stroke-width="0.1011" fill-rule="evenodd"/>
   <path d="m6.37695,7.41497l154.33203,0l0,227.22266l-154.33203,0l0,-227.22266z" id="path597" fill="none"/>
   <path d="m148.28418,198.05755l4.0498,0l0,4.0498l-4.0498,0l0,-4.0498z" id="path599" stroke-miterlimit="10" stroke-width="0.1011" fill-rule="evenodd"/>
   <path d="m148.28418,189.95794l4.0498,0l0,4.04883l-4.0498,0l0,-4.04883z" id="path601" stroke-miterlimit="10" stroke-width="0.1011" fill-rule="evenodd"/>
   <path d="m6.37695,7.41497l154.33203,0l0,227.22266l-154.33203,0l0,-227.22266z" id="path603" fill="none"/>
   <path d="m156.38477,173.75677l4.0498,0l0,4.05078l-4.0498,0l0,-4.05078z" id="path605" stroke-miterlimit="10" stroke-width="0.1011" fill-rule="evenodd"/>
   <path d="m156.38477,181.85735l4.0498,0l0,4.04981l-4.0498,0l0,-4.04981z" id="path607" stroke-miterlimit="10" stroke-width="0.1011" fill-rule="evenodd"/>
   <path d="m6.37695,7.41497l154.33203,0l0,227.22266l-154.33203,0l0,-227.22266z" id="path609" fill="none"/>
   <path d="m152.33398,169.70794l4.05079,0l0,4.04883l-4.05079,0l0,-4.04883z" id="path611" stroke-miterlimit="10" stroke-width="0.1011" fill-rule="evenodd"/>
   <path d="m152.33398,177.80755l4.05079,0l0,4.0498l-4.05079,0l0,-4.0498z" id="path613" stroke-miterlimit="10" stroke-width="0.1011" fill-rule="evenodd"/>
   <path d="m6.37695,7.41497l154.33203,0l0,227.22266l-154.33203,0l0,-227.22266z" id="path615" fill="none"/>
   <path d="m148.28418,181.85735l4.0498,0l0,4.04981l-4.0498,0l0,-4.04981z" id="path617" stroke-miterlimit="10" stroke-width="0.1011" fill-rule="evenodd"/>
   <path d="m148.28418,173.75677l4.0498,0l0,4.05078l-4.0498,0l0,-4.05078z" id="path619" stroke-miterlimit="10" stroke-width="0.1011" fill-rule="evenodd"/>
   <path d="m6.37695,7.41497l154.33203,0l0,227.22266l-154.33203,0l0,-227.22266z" id="path621" fill="none"/>
   <path d="m156.38477,165.65716l4.0498,0l0,4.05078l-4.0498,0l0,-4.05078z" id="path623" stroke-miterlimit="10" stroke-width="0.1011" fill-rule="evenodd"/>
   <path d="m148.28418,165.65716l4.0498,0l0,4.05078l-4.0498,0l0,-4.05078z" id="path625" stroke-miterlimit="10" stroke-width="0.1011" fill-rule="evenodd"/>
   <path d="m6.37695,7.41497l154.33203,0l0,227.22266l-154.33203,0l0,-227.22266z" id="path627" fill="none"/>
   <path d="m152.33398,218.30755l4.05079,0l0,4.0498l-4.05079,0l0,-4.0498z" id="path629" stroke-miterlimit="10" stroke-width="0.1011" fill-rule="evenodd"/>
   <path d="m156.38477,222.35735l4.0498,0l0,4.04981l-4.0498,0l0,-4.04981z" id="path631" stroke-miterlimit="10" stroke-width="0.1011" fill-rule="evenodd"/>
   <path d="m6.37695,7.41497l154.33203,0l0,227.22266l-154.33203,0l0,-227.22266z" id="path633" fill="none"/>
   <path d="m152.33398,226.40716l4.05079,0l0,4.05078l-4.05079,0l0,-4.05078z" id="path635" stroke-miterlimit="10" stroke-width="0.1011" fill-rule="evenodd"/>
   <path d="m156.38477,230.45794l4.0498,0l0,4.04883l-4.0498,0l0,-4.04883z" id="path637" stroke-miterlimit="10" stroke-width="0.1011" fill-rule="evenodd"/>
   <path d="m6.37695,7.41497l154.33203,0l0,227.22266l-154.33203,0l0,-227.22266z" id="path639" fill="none"/>
   <path d="m148.28418,222.35735l4.0498,0l0,4.04981l-4.0498,0l0,-4.04981z" id="path641" stroke-miterlimit="10" stroke-width="0.1011" fill-rule="evenodd"/>
   <path d="m152.33398,161.60735l4.05079,0l0,4.04981l-4.05079,0l0,-4.04981z" id="path643" stroke-miterlimit="10" stroke-width="0.1011" fill-rule="evenodd"/>
   <path d="m6.37695,7.41497l154.33203,0l0,227.22266l-154.33203,0l0,-227.22266z" id="path645" fill="none"/>
   <path d="m140.18457,230.45794l4.04981,0l0,4.04883l-4.04981,0l0,-4.04883z" id="path647" stroke-miterlimit="10" stroke-width="0.1011" fill-rule="evenodd"/>
   <path d="m136.13477,226.40716l4.0498,0l0,4.05078l-4.0498,0l0,-4.05078z" id="path649" stroke-miterlimit="10" stroke-width="0.1011" fill-rule="evenodd"/>
   <path d="m6.37695,7.41497l154.33203,0l0,227.22266l-154.33203,0l0,-227.22266z" id="path651" fill="none"/>
   <path d="m132.08398,230.45794l4.05079,0l0,4.04883l-4.05079,0l0,-4.04883z" id="path653" stroke-miterlimit="10" stroke-width="0.1011" fill-rule="evenodd"/>
   <path d="m123.98438,230.45794l4.0498,0l0,4.04883l-4.0498,0l0,-4.04883l0,0z" id="path655" stroke-miterlimit="10" stroke-width="0.1011" fill-rule="evenodd"/>
   <path d="m6.37695,7.41497l154.33203,0l0,227.22266l-154.33203,0l0,-227.22266z" id="path657" fill="none"/>
   <path d="m128.03418,226.40716l4.0498,0l0,4.05078l-4.0498,0l0,-4.05078z" id="path659" stroke-miterlimit="10" stroke-width="0.1011" fill-rule="evenodd"/>
   <path d="m119.93457,226.40716l4.04981,0l0,4.05078l-4.04981,0l0,-4.05078z" id="path661" stroke-miterlimit="10" stroke-width="0.1011" fill-rule="evenodd"/>
   <path d="m6.37695,7.41497l154.33203,0l0,227.22266l-154.33203,0l0,-227.22266z" id="path663" fill="none"/>
   <path d="m115.88477,230.45794l4.0498,0l0,4.04883l-4.0498,0l0,-4.04883z" id="path665" stroke-miterlimit="10" stroke-width="0.1011" fill-rule="evenodd"/>
   <path d="m111.83398,226.40716l4.05079,0l0,4.05078l-4.05079,0l0,-4.05078z" id="path667" stroke-miterlimit="10" stroke-width="0.1011" fill-rule="evenodd"/>
   <path d="m6.37695,7.41497l154.33203,0l0,227.22266l-154.33203,0l0,-227.22266z" id="path669" fill="none"/>
   <path d="m107.78418,230.45794l4.0498,0l0,4.04883l-4.0498,0l0,-4.04883z" id="path671" stroke-miterlimit="10" stroke-width="0.1011" fill-rule="evenodd"/>
   <path d="m103.73438,226.40716l4.0498,0l0,4.05078l-4.0498,0l0,-4.05078z" id="path673" stroke-miterlimit="10" stroke-width="0.1011" fill-rule="evenodd"/>
   <path d="m6.37695,7.41497l154.33203,0l0,227.22266l-154.33203,0l0,-227.22266z" id="path675" fill="none"/>
   <path d="m99.68457,230.45794l4.04981,0l0,4.04883l-4.04981,0l0,-4.04883z" id="path677" stroke-miterlimit="10" stroke-width="0.1011" fill-rule="evenodd"/>
   <path d="m95.63477,226.40716l4.0498,0l0,4.05078l-4.0498,0l0,-4.05078z" id="path679" stroke-miterlimit="10" stroke-width="0.1011" fill-rule="evenodd"/>
   <path d="m6.37695,7.41497l154.33203,0l0,227.22266l-154.33203,0l0,-227.22266z" id="path681" fill="none"/>
   <path d="m87.53418,226.40716l4.0498,0l0,4.05078l-4.0498,0l0,-4.05078z" id="path683" stroke-miterlimit="10" stroke-width="0.1011" fill-rule="evenodd"/>
   <path d="m91.58398,230.45794l4.05079,0l0,4.04883l-4.05079,0l0,-4.04883z" id="path685" stroke-miterlimit="10" stroke-width="0.1011" fill-rule="evenodd"/>
   <path d="m6.37695,7.41497l154.33203,0l0,227.22266l-154.33203,0l0,-227.22266z" id="path687" fill="none"/>
   <path d="m83.48438,230.45794l4.0498,0l0,4.04883l-4.0498,0l0,-4.04883z" id="path689" stroke-miterlimit="10" stroke-width="0.1011" fill-rule="evenodd"/>
   <path d="m79.43457,226.40716l4.04981,0l0,4.05078l-4.04981,0l0,-4.05078z" id="path691" stroke-miterlimit="10" stroke-width="0.1011" fill-rule="evenodd"/>
   <path d="m6.37695,7.41497l154.33203,0l0,227.22266l-154.33203,0l0,-227.22266z" id="path693" fill="none"/>
   <path d="m75.38428,230.45794l4.05029,0l0,4.04883l-4.05029,0l0,-4.04883z" id="path695" stroke-miterlimit="10" stroke-width="0.1011" fill-rule="evenodd"/>
   <path d="m71.33447,226.40716l4.04981,0l0,4.05078l-4.04981,0l0,-4.05078z" id="path697" stroke-miterlimit="10" stroke-width="0.1011" fill-rule="evenodd"/>
   <path d="m6.37695,7.41497l154.33203,0l0,227.22266l-154.33203,0l0,-227.22266z" id="path699" fill="none"/>
   <path d="m67.28418,230.45794l4.05029,0l0,4.04883l-4.05029,0l0,-4.04883z" id="path701" stroke-miterlimit="10" stroke-width="0.1011" fill-rule="evenodd"/>
   <path d="m63.23438,226.40716l4.0498,0l0,4.05078l-4.0498,0l0,-4.05078z" id="path703" stroke-miterlimit="10" stroke-width="0.1011" fill-rule="evenodd"/>
   <path d="m6.37695,7.41497l154.33203,0l0,227.22266l-154.33203,0l0,-227.22266z" id="path705" fill="none"/>
   <path d="m59.18457,230.45794l4.04981,0l0,4.04883l-4.04981,0l0,-4.04883z" id="path707" stroke-miterlimit="10" stroke-width="0.1011" fill-rule="evenodd"/>
   <path d="m55.13428,226.40716l4.05029,0l0,4.05078l-4.05029,0l0,-4.05078l0,0z" id="path709" stroke-miterlimit="10" stroke-width="0.1011" fill-rule="evenodd"/>
   <path d="m6.37695,7.41497l154.33203,0l0,227.22266l-154.33203,0l0,-227.22266z" id="path711" fill="none"/>
   <path d="m51.08447,230.45794l4.04981,0l0,4.04883l-4.04981,0l0,-4.04883z" id="path713" stroke-miterlimit="10" stroke-width="0.1011" fill-rule="evenodd"/>
   <path d="m47.03418,226.40716l4.05029,0l0,4.05078l-4.05029,0l0,-4.05078l0,0z" id="path715" stroke-miterlimit="10" stroke-width="0.1011" fill-rule="evenodd"/>
   <path d="m6.37695,7.41497l154.33203,0l0,227.22266l-154.33203,0l0,-227.22266z" id="path717" fill="none"/>
   <path d="m42.98438,230.45794l4.0498,0l0,4.04883l-4.0498,0l0,-4.04883z" id="path719" stroke-miterlimit="10" stroke-width="0.1011" fill-rule="evenodd"/>
   <path d="m38.93457,226.40716l4.04981,0l0,4.05078l-4.04981,0l0,-4.05078z" id="path721" stroke-miterlimit="10" stroke-width="0.1011" fill-rule="evenodd"/>
   <path d="m6.37695,7.41497l154.33203,0l0,227.22266l-154.33203,0l0,-227.22266z" id="path723" fill="none"/>
   <path d="m34.88428,230.45794l4.05029,0l0,4.04883l-4.05029,0l0,-4.04883l0,0z" id="path725" stroke-miterlimit="10" stroke-width="0.1011" fill-rule="evenodd"/>
   <path d="m30.83447,226.40716l4.04981,0l0,4.05078l-4.04981,0l0,-4.05078l0,0z" id="path727" stroke-miterlimit="10" stroke-width="0.1011" fill-rule="evenodd"/>
   <path d="m6.37695,7.41497l154.33203,0l0,227.22266l-154.33203,0l0,-227.22266z" id="path729" fill="none"/>
   <path d="m26.78418,230.45794l4.05029,0l0,4.04883l-4.05029,0l0,-4.04883z" id="path731" stroke-miterlimit="10" stroke-width="0.1011" fill-rule="evenodd"/>
   <path d="m22.73438,226.40716l4.0498,0l0,4.05078l-4.0498,0l0,-4.05078z" id="path733" stroke-miterlimit="10" stroke-width="0.1011" fill-rule="evenodd"/>
   <path d="m6.37695,7.41497l154.33203,0l0,227.22266l-154.33203,0l0,-227.22266z" id="path735" fill="none"/>
   <path d="m18.68457,230.45794l4.04981,0l0,4.04883l-4.04981,0l0,-4.04883z" id="path737" stroke-miterlimit="10" stroke-width="0.1011" fill-rule="evenodd"/>
   <path d="m148.28418,230.45794l4.0498,0l0,4.04883l-4.0498,0l0,-4.04883z" id="path739" stroke-miterlimit="10" stroke-width="0.1011" fill-rule="evenodd"/>
   <path d="m6.37695,7.41497l154.33203,0l0,227.22266l-154.33203,0l0,-227.22266z" id="path741" fill="none"/>
   <path d="m144.23438,226.40716l4.0498,0l0,4.05078l-4.0498,0l0,-4.05078z" id="path743" stroke-miterlimit="10" stroke-width="0.1011" fill-rule="evenodd"/>
   <path d="m140.18457,222.35735l4.04981,0l0,4.04981l-4.04981,0l0,-4.04981z" id="path745" stroke-miterlimit="10" stroke-width="0.1011" fill-rule="evenodd"/>
   <path d="m6.37695,7.41497l154.33203,0l0,227.22266l-154.33203,0l0,-227.22266z" id="path747" fill="none"/>
   <path d="m132.08398,222.35735l4.05079,0l0,4.04981l-4.05079,0l0,-4.04981z" id="path749" stroke-miterlimit="10" stroke-width="0.1011" fill-rule="evenodd"/>
   <path d="m123.98438,222.35735l4.0498,0l0,4.04981l-4.0498,0l0,-4.04981l0,0z" id="path751" stroke-miterlimit="10" stroke-width="0.1011" fill-rule="evenodd"/>
   <path d="m6.37695,7.41497l154.33203,0l0,227.22266l-154.33203,0l0,-227.22266z" id="path753" fill="none"/>
   <path d="m115.88477,222.35735l4.0498,0l0,4.04981l-4.0498,0l0,-4.04981z" id="path755" stroke-miterlimit="10" stroke-width="0.1011" fill-rule="evenodd"/>
   <path d="m107.78418,222.35735l4.0498,0l0,4.04981l-4.0498,0l0,-4.04981z" id="path757" stroke-miterlimit="10" stroke-width="0.1011" fill-rule="evenodd"/>
   <path d="m6.37695,7.41497l154.33203,0l0,227.22266l-154.33203,0l0,-227.22266z" id="path759" fill="none"/>
   <path d="m99.68457,222.35735l4.04981,0l0,4.04981l-4.04981,0l0,-4.04981z" id="path761" stroke-miterlimit="10" stroke-width="0.1011" fill-rule="evenodd"/>
   <path d="m91.58398,222.35735l4.05079,0l0,4.04981l-4.05079,0l0,-4.04981z" id="path763" stroke-miterlimit="10" stroke-width="0.1011" fill-rule="evenodd"/>
   <path d="m6.37695,7.41497l154.33203,0l0,227.22266l-154.33203,0l0,-227.22266z" id="path765" fill="none"/>
   <path d="m83.48438,222.35735l4.0498,0l0,4.04981l-4.0498,0l0,-4.04981z" id="path767" stroke-miterlimit="10" stroke-width="0.1011" fill-rule="evenodd"/>
   <path d="m75.38428,222.35735l4.05029,0l0,4.04981l-4.05029,0l0,-4.04981z" id="path769" stroke-miterlimit="10" stroke-width="0.1011" fill-rule="evenodd"/>
   <path d="m6.37695,7.41497l154.33203,0l0,227.22266l-154.33203,0l0,-227.22266z" id="path771" fill="none"/>
   <path d="m67.28418,222.35735l4.05029,0l0,4.04981l-4.05029,0l0,-4.04981z" id="path773" stroke-miterlimit="10" stroke-width="0.1011" fill-rule="evenodd"/>
   <path d="m59.18457,222.35735l4.04981,0l0,4.04981l-4.04981,0l0,-4.04981z" id="path775" stroke-miterlimit="10" stroke-width="0.1011" fill-rule="evenodd"/>
   <path d="m6.37695,7.41497l154.33203,0l0,227.22266l-154.33203,0l0,-227.22266z" id="path777" fill="none"/>
   <path d="m18.68457,222.35735l4.04981,0l0,4.04981l-4.04981,0l0,-4.04981z" id="path779" stroke-miterlimit="10" stroke-width="0.1011" fill-rule="evenodd"/>
   <path d="m14.63428,226.40716l4.05029,0l0,4.05078l-4.05029,0l0,-4.05078z" id="path781" stroke-miterlimit="10" stroke-width="0.1011" fill-rule="evenodd"/>
   <path d="m6.37695,7.41497l154.33203,0l0,227.22266l-154.33203,0l0,-227.22266z" id="path783" fill="none"/>
   <path d="m26.78418,222.35735l4.05029,0l0,4.04981l-4.05029,0l0,-4.04981z" id="path785" stroke-miterlimit="10" stroke-width="0.1011" fill-rule="evenodd"/>
   <path d="m34.88428,222.35735l4.05029,0l0,4.04981l-4.05029,0l0,-4.04981l0,0z" id="path787" stroke-miterlimit="10" stroke-width="0.1011" fill-rule="evenodd"/>
   <path d="m6.37695,7.41497l154.33203,0l0,227.22266l-154.33203,0l0,-227.22266z" id="path789" fill="none"/>
   <path d="m42.98438,222.35735l4.0498,0l0,4.04981l-4.0498,0l0,-4.04981z" id="path791" stroke-miterlimit="10" stroke-width="0.1011" fill-rule="evenodd"/>
   <path d="m51.08447,222.35735l4.04981,0l0,4.04981l-4.04981,0l0,-4.04981z" id="path793" stroke-miterlimit="10" stroke-width="0.1011" fill-rule="evenodd"/>
   <path d="m6.37695,7.41497l154.33203,0l0,227.22266l-154.33203,0l0,-227.22266z" id="path795" fill="none"/>
   <path d="m6.53418,226.40716l4.05029,0l0,4.05078l-4.05029,0l0,-4.05078l0,0z" id="path797" stroke-miterlimit="10" stroke-width="0.1011" fill-rule="evenodd"/>
   <g id="g799" stroke-width="0.1011">
    <path d="m10.58447,230.45794l4.04981,0l0,4.04883l-4.04981,0l0,-4.04883z" id="path801" stroke-miterlimit="10" stroke-width="0.1011" fill-rule="evenodd"/>
   </g>
  </g>
  <g id="svg_23">
   <g id="svg_5" transform="matrix(0.202179, 0, 0, 0.202179, -39.9172, -54.7982)">
    <g id="svg_6">
     <g id="svg_7">
      <path d="m624.51785,904.89696l19.2,0l0,-82.7l-19.2,0l0,82.7z" id="svg_8"/>
     </g>
     <g id="svg_9">
      <path d="m662.51785,933.09696l19.1,0l-0.1,-35l1.6,1.3c6.1,4.7 13.2,7.2 20.6,7.2l1.2,0c14.3,-0.4 27.1,-8.2 34.4,-20.9l0.6,-1.1c0.2,-0.4 0.5,-0.9 0.7,-1.3c2.9,-6 4.3,-12.2 4.3,-18.8c0,-6.5 -1.4,-12.8 -4.2,-18.6c-0.3,-0.6 -0.5,-1 -0.8,-1.5l-0.6,-1.2c-7.2,-12.7 -20.1,-20.5 -34.4,-20.9l-1.2,0c-7.3,0 -14.3,2.4 -20.4,7.1l-1.6,1.2l0,-8.3l-19.2,0l0,110.8zm41.1,-46.6c-12.1,0 -22,-10 -22,-22.2s9.9,-22.2 22,-22.2s22,10 22,22.2s-9.8,22.2 -22,22.2z" id="svg_10"/>
     </g>
     <g id="svg_11">
      <path d="m558.21785,904.89696l19.1,0l0,-41.4c0,-12.2 9.9,-22.2 22,-22.2l13.3,0l0,-19.1l-13.1,0c-6.9,0 -13.5,0 -20.3,10.1l-1.9,2.7l0,-12.8l-19.1,0l0,82.7z" id="svg_12"/>
     </g>
     <g id="svg_13">
      <path d="m748.71785,838.89696l14.1,0l0,41.6c0,13.5 10.9,24.4 24.4,24.4l23,0l0,-16.7l-15.9,0c-6.8,0 -12.3,-5.5 -12.3,-12.3l0,-37l28.2,0l0,-16.7l-28.2,0l0,-27.9l-19.1,6.9l0,21l-14.1,0l0,16.7l-0.1,0z" id="svg_14"/>
     </g>
     <g id="svg_15">
      <path d="m633.81785,786.09696c-6,0 -10.9,4.6 -10.9,10.3c0,5.7 4.9,10.3 10.9,10.3s10.9,-4.6 10.9,-10.3c0,-5.6 -4.9,-10.3 -10.9,-10.3z" id="svg_16"/>
     </g>
     <g id="svg_17">
      <path d="m401.61785,904.89696l40.6,0c13.7,0 24.9,-11.2 24.9,-24.9s-11.1,-24.9 -24.9,-24.9l-16.4,0c-4.5,0 -8.1,-3.6 -8.1,-8.1c0,-4.5 3.6,-8.1 8.1,-8.1l34.2,0l0,-16.7l-36.7,0c-13.7,0 -24.9,11.2 -24.9,24.9s11.2,24.9 24.9,24.9l16.4,0c4.5,0 8.1,3.6 8.1,8.1c0,4.5 -3.6,8.1 -8.1,8.1l-38.1,0l0,16.7z" id="svg_18"/>
     </g>
     <g id="svg_19">
      <path d="m516.41785,822.19696c-22.8,0 -41.3,18.6 -41.3,41.4s18.5,41.4 41.3,41.4l27.2,0l0,-19.2l-27.2,0c-12.2,0 -22.2,-10 -22.2,-22.2s10,-22.2 22.2,-22.2l27.2,0l0,-19.2l-27.2,0z" id="svg_20"/>
     </g>
    </g>
    <polygon points="381.81778478622437,895.1970825195312 350.11780309677124,863.4970703125 381.81778478622437,831.7970581054688 369.91779088974,819.9970703125 338.31778478622437,851.6970825195312 326.41779088974,863.4970703125 338.31778478622437,875.2970581054688 369.91779088974,906.9970703125 " id="svg_21"/>
    <polygon points="829.5178275108337,895.1970825195312 861.2177786827087,863.4970703125 829.5178275108337,831.7970581054688 841.3177542686462,819.9970703125 873.0178275108337,851.6970825195312 884.8177542686462,863.4970703125 873.0178275108337,875.2970581054688 841.3177542686462,906.9970703125 " id="svg_22"/>
   </g>
  </g>
 </g>
</svg>